<svg xmlns="http://www.w3.org/2000/svg"  viewBox="0 0 100 100" width="100px" height="100px"><path d="M 30 18 C 23.384534 18 18 23.384534 18 30 L 18 70 C 18 76.615466 23.384534 82 30 82 L 70 82 C 76.615466 82 82 76.615466 82 70 L 82 30 C 82 23.384534 76.615466 18 70 18 L 30 18 z M 30 20 L 70 20 C 75.534534 20 80 24.465466 80 30 L 80 35 L 29.425781 35 A 0.50005 0.50005 0 1 0 29.425781 36 L 80 36 L 80 51 L 63.425781 51 A 0.50005 0.50005 0 1 0 63.425781 52 L 80 52 L 80 65 L 29.425781 65 A 0.50005 0.50005 0 1 0 29.425781 66 L 80 66 L 80 70 C 80 75.534534 75.534534 80 70 80 L 30 80 C 24.465466 80 20 75.534534 20 70 L 20 66 L 26.425781 66 A 0.50005 0.50005 0 1 0 26.425781 65 L 20 65 L 20 52 L 60.425781 52 A 0.50005 0.50005 0 1 0 60.425781 51 L 20 51 L 20 36 L 26.425781 36 A 0.50005 0.50005 0 1 0 26.425781 35 L 20 35 L 20 30 C 20 24.465466 24.465466 20 30 20 z M 23.925781 38 A 1 1 0 0 0 23.925781 40 A 1 1 0 0 0 23.925781 38 z M 27.925781 38 A 1 1 0 0 0 27.925781 40 A 1 1 0 0 0 27.925781 38 z M 31.925781 38 A 1 1 0 0 0 31.925781 40 A 1 1 0 0 0 31.925781 38 z M 35.925781 38 A 1 1 0 0 0 35.925781 40 A 1 1 0 0 0 35.925781 38 z M 39.925781 38 A 1 1 0 0 0 39.925781 40 A 1 1 0 0 0 39.925781 38 z M 43.925781 38 A 1 1 0 0 0 43.925781 40 A 1 1 0 0 0 43.925781 38 z M 47.925781 38 A 1 1 0 0 0 47.925781 40 A 1 1 0 0 0 47.925781 38 z M 51.925781 38 A 1 1 0 0 0 51.925781 40 A 1 1 0 0 0 51.925781 38 z M 55.925781 38 A 1 1 0 0 0 55.925781 40 A 1 1 0 0 0 55.925781 38 z M 59.925781 38 A 1 1 0 0 0 59.925781 40 A 1 1 0 0 0 59.925781 38 z M 63.925781 38 A 1 1 0 0 0 63.925781 40 A 1 1 0 0 0 63.925781 38 z M 67.925781 38 A 1 1 0 0 0 67.925781 40 A 1 1 0 0 0 67.925781 38 z M 71.925781 38 A 1 1 0 0 0 71.925781 40 A 1 1 0 0 0 71.925781 38 z M 75.925781 38 A 1 1 0 0 0 75.925781 40 A 1 1 0 0 0 75.925781 38 z"/></svg>